<?xml version="1.0" encoding="UTF-8"?><svg id="a" xmlns="http://www.w3.org/2000/svg" width="1366" height="768" viewBox="0 0 1366 768"><path d="M1033.87,466.13l.05-1.11.66,1.03,2.77-.44c1.39-.22,3.64,4.95,2.61,8.49-.28.97-2.78,1.87-3.8,1.8-1.14-.08-3.41-1.54-3.64-2.67-.39-1.94.56-4.98,1.41-6.33l-.06-.77Z"/><path d="M706.35,448.54l-2.92,1.08c-2.07-2.85-1.88-7.39-1.85-10.56,2.94.11,14.94-3.05,16.38-.38-2.77,4.6-8.93,5.12-11.62,9.85Z" fill="#fff"/><path d="M981.78,449.77l1.56-2.31c1.32,1.54,1.75,1.8-1.56,2.31Z" fill="#fff"/><path d="M987.43,448.95c.02.42.02.99,0,1.41-.02-.42-.02-.99,0-1.41Z" fill="#fff"/><rect x="716.69" y="442.65" width=".5" height=".5" transform="translate(-103.17 636.77) rotate(-45.01)" fill="#fff"/><rect x="985.05" y="449.05" width=".5" height=".5" transform="translate(-29.07 828.43) rotate(-45.01)" fill="#fff"/><path d="M733.76,351.81c-4.56,2.12-8.48,6.33-12.67,9.12-2.67,1.78-7.83,4.02-4.04,7.85,1.32,1.33,4.46,4.56,5.98,5.55,4.32,4.66,11.49,10.14,16.01,14.55,3.65,1.21,7.27,4.11,10.78,5.52,4.15,1.79,12.65,5.12,16.91,6.61,1.71.62,2.41.92,2.35,3.31-9,.99-19.22-3.6-27.22-7.2-3.12-1.32-11.62-6.22-14.64-8.03-2.15-1.86-6.53-5.8-8.63-7.68,0,0-4.22-4.77-4.22-4.77-2.22-.86-2.33.09-2.66,1.98-3.11,13.02-6.71,29.01-9.12,42.26-1.83,11.94-4.35,12.01,9.05,11.44,14.28-1.19,12.01,2.69,22.6-10.21-.18,3.74-2.9,6.7-5.18,9.19,4.94-.23,16.73-.46,21.81-.54,4.9-1.67,12.22-.31,17.29-.45,19.75-1.65,41.18-.72,60.98-.57,8.33-.41,21.1.03,29.44,1.14,0,0,13.72.16,13.72.16,1.49-.12,7.38.72,8.71-.31.55.21,2.32,1.46,3.01,1.51l9.61.07,9.36.09c3.02-1.23,1.56,3.74,4.59.62,2.53,2.11,15.08,1.87,18.34,2.46,0,0,5.43.07,5.43.07,2.18.52,7.91,1.1,10.22,1.3,3.99.43,19.15,2.13,22.85,2.32,2.92.83,9.28,1.7,12.32,1.96,2.71.29,10.9,1.1,13.36,2.17,5.03.81,12.4,2.44,17.21,4.05l1.84,4.11c-5.06,6.88-10.8,5.06-18.14,4.69-8.66-.45-19.15.51-27.48-2.06,1.51-7.12,11.97-3.88,17.17-4.54,1.61-.48.9-2.3-.4-2.75,0,0-8.92-.7-8.92-.7-3.09-.24-8.25-1.44-10.98-1.03-.39.06-1.3-.91-1.91-1.62.08-.07-.81.71-.85.75,1.38,1.47.92,1.53-.08,2.48-.16-.75-.57-2.51-.98-3.04-.75-.97-3.99.67-3.84,1.51l-2.1-2.81c-.11-.15-1.34,1.13-1.19,1.26.22.18-.91-.77-1.12-.94-8.22-.76-19.47-2-27.76-2.31-6.58-.69-18.15-1.96-24.62-2.25-6.67-.3-15.82-.56-22.48-.81-3.87-.88-16.11-.87-20.22-.9-8.38-.55-18.68-1.1-27.1-1.02-2.48-.23-7.68-.46-10.19-.53-.34-.01-1.42.43-1.48.75l-.21,1.15c-2.6-2.47-7.65-2.41-10.81-.52-6.92-2.43-19.54-.91-26.89-.63-5.71-.03-13.51.06-19.21.39-4.87.33-16.4.76-21.39.91-8.95.75-12.71-.42-17.8,5.33l.21,1.7c-3.96,3.51-11.29,14.62-17.21,12.5-6.32-3.24-7.42-10.26-6.58-14.78,0,0-1.3-.45-1.3-.45,2.59-3.1-6.54-1.06-7.48-1.31-5.56.6-16.37,1.66-21.86,2.15-6.84.29-16.22,1.11-22.96,2.16-4.8,1.09-14.66,2.25-19.6,2.46-18.85,3.87-39.51,5.88-58.5,9.37-30.26,4.81-60.59,12.79-90.4,19.84-4.53.99-8.81,2.84-13.05,4.68-7,1.68-16.52,4.76-23.46,6.72-2.34.69-6.69,3.73-9.29,6.44-3.52,2.72-10.17,4.66-14.18,6.86.01.11,1.05,1.05,1.07.97,10.5,5.94,15.78-1.42,24.51,2.35,2.18,1.82,3.79,2.64,7.07,2.61l-1.78,3.98c-7.74,1.63-16.99.41-24.92.69-5-3.49-8.38-.01-11.64-2.96-3.78-3.42-1.17-5.58-2.18-9.59,0,0,4.08-6.6,4.08-6.6,6.14-4.35,15.26-6.37,22.34-8.98,6.43-1.86,12.08-4.83,18.5-6.88,8.95-2.57,19.69-5.67,28.75-7.74,7.73-1.94,17.1-3.88,24.61-6.55,8.43-1.69,19.22-4.3,27.63-5.99,7.5-1.75,19.23-3.55,26.89-4.86,5.62-1.02,13.86-1.62,19.02-3.98,22.15-3.19,46.48-6.48,68.72-8.99,10.9-1.37,25.05-1.22,35.82-3.51,2.8.24,8.68-.04,11.45-.62,1.75-.23,2.21-3.95,2.43-5.44.92-5.14.98-12.43,2.66-17.42.14-2.53,2.02-9.27,2.26-11.75,1.53-6.74,5.71-17.47,4.4-24.12-5.25,3.13-13.03,7.67-16.7,12.7-5.27,1.32-11.73,4.97-16.56,7.4-2.31,2.24-8.54,4.86-11.53,6.05,0,0-1.95,2.3-1.95,2.3l-8,3.61c-4.92,2.05-11.98,4.99-17.07,6.58,0,0-4.88,1.53-4.88,1.53-5.74,1.6-7.38-.17-9.57,3.08-.45-.25-1.63-1.13-2.07-1.22,0,0-.99.55-.99.55-4.45-1.94-10.03-1.59-13.68-7.14-3.76-5.72-3.2-18.18,1.43-24.9,1.51-2.18,4.65-6.74,6.17-8.94.9-1.3-.42-4.76-.77-6.22-.26-1.11-1.81-7.66-2.03-8.6-2.92.18-4.98,2.45-5.44,5.4,0,0-3.14,12.47-3.14,12.47-1.6,6.34-.02,10.3-2.67,11.03-1.91.59-3.88,1.42-4.94-1.05,0-3.8-.57-8.84-2.24-12.39-.32-1.1.58-3.54,1-4.88.19-3.05-1.12-10.89-1.24-14.11-.67-4.72-4.12-31.82,4.76-28.63,2.16,3.62,3.99,7.37,6.82,10.59,1.97,2.23.04,5.85-.61,8.25-1.13,4.7-4.89,7.76-2.91,13.14,5.19-9.09,12.07-18.18,16.88-2.8,1.82,4.5.42,8.13,2.66,9.99,5.76.59,5.48-20.25,19.62-21.11l3.12,2.41c2.63.17,4.84-2.09,7.18-2.9,0,0,10.6-3.68,10.6-3.68,8.79-4.37,19.91-4.64,29.28-2.13,1.69.31,3.99,3.36,5.4,4.25,5.35,3.07,13.85,10.19,18.1,14.66,1.28-9.1,4-20.28,5.54-29.37-.45,0-1.76.11-1.42-.7,0,0,1.09-.52,1.09-.52,2.73-1.29.12-3.79.38-5.04,2.1-4.13,3.03-11.33,3.34-16.06.5-2.8,1.47-8.59,1.88-11.38,1.48-10.19,3.41-21.7,2.43-32.02-.04-1.04-2.1-2.28-3.41-2.69l2.25-.39c3.88-.67,2.13-4.9,5.16-5.64,7.03-1.31,4.43,16.97,4.41,22.75-.21,3.14.08,9.85.36,13.02.11,1.85-.63,5.67.22,7.21,2.6,3.92,3,6.63-.59,9.93l-.84,5.49-1.87-1.03.5-6.53c-1.51-3.34-3.63,2.97-4.79,8.52,0,0-1.72,12.62-1.72,12.62-.87,5.47-4.42,23.15-5.55,28.85,6.17-5.44,14.46-10.99,20.98-15.97,3.22-2.68,9.83-8.19,13.55-10.06,2.16-1.78,7.03-5.39,9.63-6.38,7.33-4,16.83-7.46,22.96.71,5.69,8.09,1.42,17.5-5,24.1l-.56-1.23c.42-3.35,3.87-10.02,2.35-13.1-5.16-4.88-17.24,2.52-22.52,3.77-2.38.57-5.34,3.34-7.4,4.71-.07-.58,0-1.34-.21-1.88-.16-.41-.59-.74-1.02-.63-.57.15-.69.89-1,1.4-.91,1.52-4.58,2.37-6.09,3.3-2.36,1.46-4.52,3.23-6.41,5.26-.09.1-.19.21-.18.34,0,.32.48.34.78.25.75-.21,1.5-.43,2.26-.64-.43.51-.6,1.2-.98,1.76s-1.15.98-1.71.62c-.62-.41-.69-1.56-1.1-2.13-.05.02-.1.05-.16.07ZM653.33,399.8c4.62-2.38,9.1-5.02,13.42-7.9,2.63-1.76,5.42-3.93,5.96-7.06.87-5.02-4.31-8.79-8.79-11.22-1.8,5.1-4.32,9.95-7.46,14.36-3.74-9.33-4.29-19.9-1.52-29.56.39-1.35.88-2.75,1.96-3.64,2.01-1.67,5.21-.8,7.03,1.07s2.69,4.43,3.78,6.79c2.72,5.9,7.15,10.99,12.61,14.5,1.35-6.11,1.27-12.53-.22-18.6-.92-3.74-2.63-7.65-6.06-9.39-2.03-1.03-4.39-1.16-6.67-1.08-4.99.17-9.94,1.22-14.57,3.09-1.74.7-3.52,1.59-4.58,3.14-1.28,1.88-1.26,4.32-1.19,6.59.22,7.17.45,14.34.67,21.5.04,1.2.04,2.5-.68,3.45-.53.7-1.38,1.08-2.19,1.41-6.59,2.69-13.78,3.91-20.89,3.55-3.29-.17-6.61-.67-9.88-.2-8.15,1.17-13.82,12.27-6.98,18.56,4.37,4.02,11.22,3.19,16.98,1.74,10.14-2.56,19.97-6.3,29.27-11.08ZM701.27,366.89l1.83.07-.64-1.37c-4.55-2.82-10.29-7.65-14.72-10.65-1.19,7.74.68,15.06,1.9,22.47,3.79-2.87,8.87-6.56,11.64-10.52ZM631.08,384.24c3.25-1.62,5.76-4.79,6.79-8.32,1.37-4.71.4-9.88-1.8-14.27-.2-.4-.43-.81-.82-1.02-.67-.36-1.48.02-2.13.43-7.01,4.45-10.83,12.8-9.49,21.02.17,1.05.48,2.18,1.36,2.8.74.52,1.72.54,2.61.43,1.22-.15,2.39-.52,3.47-1.06ZM706.35,448.54c2.68-4.74,8.85-5.26,11.62-9.85-1.43-2.67-13.46.49-16.38.38-.02,3.19-.22,7.68,1.85,10.56l2.92-1.08ZM716.94,442.54l-.36.36.36.36.36-.36-.36-.36ZM981.78,449.77c3.31-.51,2.87-.78,1.56-2.31l-1.56,2.31ZM985.3,448.95l-.36.36.36.36.36-.36-.36-.36ZM987.43,448.95c-.02.42-.02.99,0,1.41.02-.42.02-.99,0-1.41Z"/><path d="M488.61,380.49c-.32-.85-.84-1.9-.53-2.26,3.09-2.6.35-4.68,1.58-8.41,2.12-5.73,4.25-14.89,9.56-18.61,5.32-6.64,10.54-6.6,16.67-1.11,2.43,2.54,6.55,16.17,7.93,19.52.87,6.47-6.05,8.67,4.4,18.09,2.33,2.33-.07-7.36.27-7.6-.86-12.5,3.87-26.28,13.18-34.77,4.66-1.93,10.25,1.23,14.46,2.64.59-8.57-.53-20.32,7.18-26.04,3.84-3.25,8.08-1.05,9.77,3.34,4.76,11.27,1.45,24.45.03,36.09-.47,3.59-3.27,11.6-4.55,15.04-.07,6.68,6.27,8.9,11.62,10.3l.26,3.08c-7.75-.28-11.48,2.69-16.02-5.54-.2-.29-1.57-.94-1.75-.65l-3.41,5.48c-7.75,4.5-18.07,13.83-26.32,4.33-6.8-.4-11.95-2.7-15.31-8.53-.42-.61-7.18,11.99-17.56,9.56-7.91-1.79-9.17-7.3-11.47-13.93ZM565.96,368.93c.85-.93,1.13-2.71,1.46-3.93.44-1.62.83-3.26,1.17-4.91.68-3.3,1.15-6.63,1.42-9.99.54-6.71.25-13.49-.88-20.12-2.2.59-3.78,2.6-4.51,4.76s-.74,4.48-.77,6.75c-.05,3.31-.16,6.63-.7,9.89-.22,1.35-.52,2.71-.35,4.07.15,1.22.67,2.35.97,3.54.62,2.47-.29,8.43,2.18,9.93ZM553.43,386.05c4.1.22,2.83-1.91,6.55-5.61,1.34-1.33.92-4.26-.39-5.7-3.07,2.4-6.1,2.19-9.93,1.91.61-3.57,4.61-3.57,6.07-5.82,2.29-4.12.54-10.55-3.41-13.11-4.78-4.95-10.91-4.96-12.69,2.67l.62,1.15-1.64.36c-.92.75-2.6,7.38-3.16,8.57l1.29,3.29c-2.88,4.73-1.84,9.63,1,14.12.63,1.14,1.6,1.94,2.89,2.11,10.45,1.39,9.47-4.13,12.8-3.95ZM509.34,381.19c.6-2.24,1.09-3.4.35-5.61-.7-2.07-.54-4.32-.36-6.46,1-.15,2.01-.3,3.01-.45.11-.02,1.02,1.94,1.14,2.19.33-1.28,1.97-3.58,1.87-4.82-1.45-2.74-2.82-6.03-6.15-7.18-2.93-.98-5.1,4.16-9.32,3.76l-.04,4.66-2.8.31c-.69,2.93-1.81,8.13-.8,11.07.19,4.43.67,5.89,4.72,9.08,3.36,2.7,7.57-2.38,8.39-6.53Z"/><path d="M464.28,373.22c-2.56,4.93-5.42,9.42-10.4,11.58-1.27.55-2.85.87-3.95.04-.9-.67-1.18-1.88-1.42-2.97-2.05-9.41-5.61-18.48-10.5-26.78-1.12,8.12-1.54,16.35-1.24,24.54.15,4.2.92,9.1,4.62,11.1-1.22,3.49-6.74,3.34-9.13.52s-2.52-6.85-2.54-10.55c-.04-9.82-.07-19.63-.11-29.45-.02-4.27.78-22.67,9.57-16.63,1.93,1.33,2.99,3.58,3.93,5.73,3.92,9.09,7.1,18.5,9.49,28.11,7.74-7.42,7.41-20.13,13.82-28.72,2.29-3.06,6.91-5.51,9.7-2.9,1.42,1.32,1.7,3.43,1.9,5.36,1.63,15.95,3.26,31.91,4.89,47.86.06.64.12,1.32-.22,1.87-.88,1.43-3.13.44-4.21-.85-6.99-8.34-2.25-21.37-6.12-31.54-3.46,3.85-5.63,8.96-8.07,13.66ZM466.29,360.03c1.06-.79,1.37-2.5.83-3.67l-.83,3.67ZM458.22,374.28l3.85-3.38,3.82-9.56c-2.77,2.65-4.53,7.29-7.14,10.21,0,0-.53,2.73-.53,2.73Z"/><path d="M815.02,390.59c-.32-.78-.53-1.63-.71-2.46-1.64-7.23-3.04-14.7-6.84-21.08-.32-.54-.78-1.14-1.41-1.11-.63.03-1.04.67-1.29,1.25-1.5,3.45-1.72,7.3-2.05,11.05-.42,4.66-1.05,9.3-1.91,13.89-.11.6-.24,1.23-.62,1.72-.84,1.07-2.61.95-3.65.06s-1.49-2.26-1.78-3.59c-.96-4.41-.67-9-1.29-13.47-.61-4.37-5.15-17.38,1.73-19.06,1.26-.31,2.66.04,3.63.91.66.59,1.46,1.47,2.23,1.03.26-.15.42-.43.55-.7.75-1.62.96-3.76,2.55-4.56,1.69-.85,3.64.46,4.95,1.81,2.6,2.67,4.69,5.83,6.13,9.27,2.08-2.99,3.7-6.3,4.79-9.77.62-1.96,1.46-4.34,3.49-4.66,1.59-.25,3.02.99,4,2.26,2.83,3.66,4.17,8.24,5.11,12.77s1.53,9.17,3.12,13.51,4.38,8.47,8.52,10.54c-2.18,1.86-5.6,1.66-8.03.15s-4.05-4.05-5.24-6.65c-2.91-6.37-3.75-13.47-5.92-20.12-.11-.35-.24-.71-.53-.93-.43-.33-1.09-.19-1.5.17s-.63.88-.81,1.39c-2.95,8.19-.66,17.24-1.08,25.93-.04.88-.14,1.83-.7,2.51-1.02,1.23-3.12.92-4.25-.2-.53-.53-.91-1.17-1.19-1.86Z"/><path d="M782.77,359.19c.02.13.04.25.05.38.62,4.49.39,9.06.98,13.55s2.12,9.11,5.54,12.08c1.11.96,2.54,2.1,2.23,3.53-.31,1.45-2.22,1.9-3.67,1.6-3.31-.68-5.7-3.48-7.83-6.11-1.67.65-2.39,2.57-3.53,3.95-1.45,1.76-3.72,2.7-5.99,2.91-1.91.17-3.88-.15-5.55-1.08-2.01-1.11-3.48-2.99-4.58-5-2.27-4.14-3.18-8.87-3.82-13.55-.55-4.05-2.29-18.74,5.61-16.91,1.94.45,3.46,1.97,4.58,3.61,2.53,3.7,3.58,8.39,2.86,12.81-.09.58-.23,1.18-.63,1.61-.91.97-2.51.49-3.73-.06-.84,2.27-.5,4.88.65,7.01s3.04,3.8,5.17,4.95c2.58-4.91,4.91-10.15,5.02-15.69.07-3.68-.83-7.48.31-10.97.43-1.32,1.34-2.68,2.72-2.84,1.08-.13,2.14.57,2.73,1.49.52.81.75,1.77.9,2.73Z"/><path d="M866.29,384.89c-2.04-.14-3.4,1.94-4.87,3.36-3,2.89-7.63,3.39-11.73,2.65-1.05-.19-2.13-.47-2.95-1.15-1.15-.95-1.59-2.51-1.9-3.98-2.46-11.83-1.09-29.68,10.51-36.52.25-.15.52-.3.82-.3.39,0,.73.26,1.03.52,2.93,2.5,5.34,5.62,7.02,9.09.12.25.25.51.48.65.2.12.44.13.67.14,1.26,0,2.8-.19,3.51.84.23.34.32.75.4,1.15,1.69,8.39,1.88,17.01,2.06,25.57.02.77.01,1.6-.46,2.2-.83,1.08-2.69.71-3.54-.36s-.97-2.53-1.06-3.89ZM859.87,380.17c4.53-4.44,1.5-7.92-.21-12.57.74-4.16-3.08-8.13-3.94-6.89l-2.19,3.15c-5.44,7.62-5.06,29.57,6.34,16.31Z"/><path d="M893.42,373.81c.18,3.16.44,6.32-.26,9.38-.25,1.08-.74,2.27-1.8,2.6-1.67.52-2.98-1.45-3.63-3.07-2.59-6.45-5.17-12.9-7.76-19.36-1.91-4.76-.93-20.59,5.11-10.17,1.48,2.56,1.72,5.85,3.78,7.97,3.09-4.9,8.68-8.14,14.47-8.38.57-.02,1.17-.01,1.66.28,1.36.81.74,3.07-.61,3.9s-3.03.82-4.54,1.3c-4.38,1.4-6.35,6.58-6.51,11.18-.05,1.46.02,2.92.1,4.38Z"/><path d="M652.9,398.91c-5.18,4-14.12,7.43-20.29,9.52-4.65,2.54-16.78,5.48-20.33,4.31,0,0-5.06-2.69-5.06-2.69-3.03-1.61-3.58-10.77-1.26-15.29,1.2-2.31,3.75-7.34,5.08-9.53,2.74-1.05,4.29,4.85,7.49,5.2,5.48,3.42,12.49,2.54,17.62-1.19,1.56-1.42,3.5-3.7,5.48-4.03,2.61,2.44,5.07,4.47,9.04,4.35l-.04-3.38c-10.29-6.71,2.63-20.26-3.42-30.11-.94.13-3.32.54-4.2.88-.5.15-1.87-1.73,4.64-4.05l5.74-2.05c8.11-3.1,17.98-5.41,25.6.58,0,0,.08,6.31.08,6.31l1.33,6.14c1.25,2.87,1.36,7.67,1.17,10.76,0,.79.96,2.64,1.43,3.49.44.78-1.61,2.8-2.29,2.26-4.01-2.27-11.23-16.23-13.76-19.96-1.88-4.28-4.75-8.84-10.38-7.57-4.06,2.01-2.19,11.34-2.69,14.95-.08,3.74-.51,14.37-.59,17.96-.42,2.35,2.16,5.54,4.6,3.86,2.67-5.92,4.07-14.67,4.73-21.14,1.77,1.28,4.93,7.03,6.02,8.93,0,0,7.35,8.47,7.35,8.47-2.43,2.36-6.36,4.69-9.51,5.84-3.27,1.96-10.1,5.55-13.57,7.17Z" fill="#fff"/><path d="M630.98,384.04c-.36.18-.72.36-1.08.52-1.2.54-3,1.56-4.3.91-1.14-.57-1.64-2.21-1.89-3.35-1.72-7.98,2.24-16.85,9.33-20.88.61-.35,1.31-.67,1.98-.48.88.25,1.29,1.23,1.57,2.1,1.62,4.92,2.96,10.46.71,15.12-1.31,2.72-3.69,4.7-6.33,6.06Z" fill="#fff"/><path d="M701.27,366.89c-2.76,3.95-7.86,7.65-11.64,10.52-1.23-7.41-3.09-14.72-1.9-22.47,4.43,3,10.17,7.82,14.72,10.65l.64,1.37-1.83-.07Z" fill="#fff"/><path d="M553.64,386.57c-1,.58-2.04,1.09-3.1,1.55-2.29,1.01-4.73,1.85-7.24,1.81s-5.11-1.08-6.49-3.17c-1.27-1.92-1.35-4.36-1.34-6.67.03-5.09.31-10.28,1.85-15.17,1.3-4.09,4.01-9.97,9.01-10.25,1.77-.1,3.52.66,4.89,1.79s2.42,2.6,3.36,4.11c.87,1.4,1.66,2.88,2.04,4.49s.28,3.38-.54,4.81c-1.26,2.18-3.9,3.16-5.56,5.06-.19.22-.37.47-.38.75-.02.59.67.93,1.25,1.05,2.02.43,4.19.14,6.02-.8.62-.32,1.28-.72,1.95-.57,1.16.26,1.38,1.83,1.12,2.99-.53,2.36-1.97,4.44-3.78,6.04-.94.84-1.98,1.55-3.07,2.19Z" fill="#fff"/><path d="M509.16,381.14c-.55,1.89-1.5,3.63-2.89,5.03-1.31,1.32-3.21,2.32-4.99,1.79-1.68-.5-2.7-2.17-3.36-3.8-3.5-8.64-.67-21.21,8.81-24.73.82-.31,1.7-.53,2.57-.39,1.05.17,1.94.88,2.67,1.65,1.41,1.49,2.42,3.35,2.91,5.34.29,1.17.23,2.72-.87,3.22-1.11.51-2.44-.46-3.6-.07-.8.27-1.26,1.14-1.33,1.98s.15,1.67.32,2.5c.51,2.45.46,5.08-.24,7.48Z" fill="#fff"/><path d="M566.11,369.09c-1.17-1.81-1.71-3.94-2.07-6.07-.75-4.46-.74-9-.74-13.52,0-6.1-.75-16.32,5.78-19.55,2.25,13.02,1.22,26.6-2.97,39.14Z" fill="#fff"/><path d="M458.28,373.89c.05-2.08,1.84-4.27,2.91-5.95.66-1.04,1.35-2.05,2.09-3.04.57-.76,1.85-1.8,2.16-2.67-.67,1.89-1.34,3.79-2.14,5.63-1.07,2.46-2.54,4.99-5.01,6.02Z" fill="#fff"/><path d="M466.29,360.03l.83-3.67c.54,1.17.22,2.88-.83,3.67Z" fill="#fff"/><path d="M859.92,380.22c-.97,1.06-2.15,1.99-3.29,2.83-1.09.8-2.43,1.63-3.72,1.2-1.28-.42-1.87-1.89-2.17-3.2-1.62-6.99.38-14.19,4.64-19.86.15-.19.31-.4.53-.49.27-.11.57-.05.84.05,1.25.47,2.03,1.75,2.4,3.04s.41,2.65.74,3.95c.65,2.62,2.42,5.02,2.3,7.72-.09,1.83-1.01,3.39-2.26,4.76Z" fill="#fff"/></svg>